<?xml version="1.0" encoding="utf-8"?>
<!-- Generator: Adobe Illustrator 17.1.0, SVG Export Plug-In . SVG Version: 6.00 Build 0)  -->
<!DOCTYPE svg PUBLIC "-//W3C//DTD SVG 1.1//EN" "http://www.w3.org/Graphics/SVG/1.1/DTD/svg11.dtd">
<svg version="1.1" id="Layer_1" xmlns="http://www.w3.org/2000/svg" xmlns:xlink="http://www.w3.org/1999/xlink" x="0px" y="0px"
	 viewBox="587 376.7 90.7 33" enable-background="new 587 376.7 90.7 33" xml:space="preserve">
<g>
	<path fill="#1C3665" d="M592.6,401.8c-1.4,2.4-2.7,4.8-3.6,7c-0.2,0.4-0.6,0.4-0.9,0.1c-0.6-0.8-0.8-2.2,0.2-4.9
		c0.3-0.7,0.7-1.7,1.3-2.7c-1.1-0.6-1.4-1.3-1.6-1.6c-0.2-0.6-0.1-0.8,0.6-0.7c0.7,0.1,1.4,0.2,2.2,0.2c3.7-6.6,10.5-16.2,15.7-20.4
		c0.8-0.6,1.2-0.6,1.7,0c0.5,0.7,0.6,0.8,1.1,2s0.4,2.2,0,3.5c-1.2,3.8-2.6,8.8-3.5,14.1c1.4,0.5,2,1.4,2.2,2.4
		c0.1,0.4-0.1,0.6-0.5,0.4c-0.6-0.1-1.2-0.2-2.1-0.3c-0.3,2.5-0.6,5.2-0.7,7.8c0,0.5-0.3,0.6-0.7,0.4c-1-0.4-1.7-1.6-1.8-4.4
		c0-1,0-2.2,0.2-3.6C598.8,401.3,594.8,401.9,592.6,401.8z M602.6,398.1c0.7-5.1,2.1-11.1,3.6-14.9c-3.6,4.1-8.1,10-11.8,15.8
		C597.4,398.7,600.4,398.2,602.6,398.1z"/>
	<path fill="#1C3665" d="M615.6,409.2c-2.5,0-4.2-1.3-5.1-3.4c-0.4,1-1,2.2-1.4,3.2c-0.2,0.5-0.5,0.5-0.8,0.1
		c-0.7-1-1.2-2.4-0.2-5.4c1.3-4,10.8-21.9,14.1-26.7c0.4-0.6,0.8-0.6,1.2,0c0.7,1.3,0.7,3.5-1.2,7.2c-0.7,1.3-2.8,4.7-4.3,7.4
		c1.4-1.2,2.9-2,4.1-2c4.1,0,4.3,5.8,1.6,11.6C621.3,406.5,618.4,409.2,615.6,409.2z M617.7,393.6c-2.2,2.3-4.5,6.3-6.3,10
		c0.1,1.4,0.7,2.9,2,3.2c1.7,0.4,3.9-1.1,6.8-6.7c2.7-5.5,2.2-8.5,1.1-8.5C620.2,391.6,619.2,392.1,617.7,393.6z"/>
	<path fill="#1C3665" d="M656.7,409.5c-3.1,0-4.3-1.9-3.9-4.7c-1.7,2.2-4.1,4.8-7,4.5c-3.4-0.3-3.5-3.8-2.4-7.1
		c0.4-1.2,1-2.6,1.8-4.1c-1.3,0.6-2.8,1-4.3,0.9c-1.1,4-4,8.9-7.5,10c-1.8,0.6-4.2,0.4-6.2-2.1c-2.1-2.8-1.4-7.1,0.7-10.9
		c1.8-3.3,4.8-6.1,7.8-6.3c1.4-0.1,2.3,0.3,3.3,1.6c1.2,1.4,2.5,1.7,2.3,5.4c0,0.3,0,0.6-0.1,1c2.7,0,5.5-2.3,7.1-4.9
		c0.5-0.8,1.2-1.8,1.8-2.6c0.4-0.5,0.8-0.5,1.2,0c1.1,1.6,0.8,3.6-0.9,6.5c-1.7,2.8-2.8,4.8-3.7,7.1c-1,2.4-0.8,4,0.2,4.1
		c1.9,0.1,4.6-3.1,7.2-7.4c3-4.8,4.4-8.3,6-10.3c0.4-0.6,0.8-0.7,1.2-0.3c0.7,0.9,1.1,2.9,0,5.4c-1.1,2.2-3.4,5.8-4.5,8.3
		c-1.2,2.8-1.1,4.8,0.7,4.7c2-0.1,4.5-3.3,6.4-6.7c0.2-0.4,0.6-0.5,0.9,0c0.2,0.4,0.2,1.7-0.4,3
		C662.4,407.1,659.5,409.5,656.7,409.5z M634.4,393.3c-1.2,1.1-2.7,2.7-3.7,4.6c-2,3.6-2.7,8.1-1.4,9.2c1.3,1.1,4.2-0.6,6.7-5.1
		c0.8-1.4,1.2-2.7,1.7-3.9C636,397.2,634.4,395.3,634.4,393.3z M636.9,393.4c-0.1,1.3,0.2,2.5,1.1,3.3c0.4-1.4,0.4-2.6,0.3-3.4
		C638.1,391.7,637,392,636.9,393.4z"/>
	<path fill="#1C3665" d="M665.6,388.6c-0.5-0.7-0.2-1,0.5-1c1.3,0,2.7,0,4-0.2c1.5-2.6,2.8-4.9,3.6-6.1c0.4-0.6,0.9-0.6,1.2,0
		c0.5,1.3,0.5,2.9-0.6,5.5c1.9,0,2.6,0.8,3,1.4c0.3,0.6,0.1,0.9-0.6,0.9c-1.1-0.1-2.5,0-3.7,0.2c-1.9,3.2-4.6,8-6.5,12
		c-1.6,3.5-1.1,6.6,1,6.7c2.2,0.1,4.9-3.3,6.8-7c0.3-0.6,0.8-0.7,1,0c0.2,0.8,0,1.6-0.5,2.7c-0.6,1.4-3.8,5.7-7.7,5.6
		c-3.2-0.1-5.8-3.6-3.4-9.3c1-2.4,3-6.5,5.2-10.3C667.1,389.8,666,389.1,665.6,388.6z"/>
</g>
</svg>
