<?xml version="1.0" encoding="utf-8"?>
<!-- Generator: Adobe Illustrator 17.1.0, SVG Export Plug-In . SVG Version: 6.00 Build 0)  -->
<!DOCTYPE svg PUBLIC "-//W3C//DTD SVG 1.1//EN" "http://www.w3.org/Graphics/SVG/1.1/DTD/svg11.dtd">
<svg version="1.1" id="Layer_1" xmlns="http://www.w3.org/2000/svg" xmlns:xlink="http://www.w3.org/1999/xlink" x="0px" y="0px"
	 viewBox="0 0 1280 800" enable-background="new 0 0 1280 800" xml:space="preserve">
<g>
	<g enable-background="new    ">
		<path fill="#003366" d="M51.7,401.3c-1.2,4.6-4,6-7.4,2.7c-8.8-8.9-14.9-22.2-10.8-52.4c5.5-42.7,62-218.6,84.8-264.1
			c3.4-6.5,6.8-6.5,11.7-0.9c8,10,14.1,32.7,0.2,71.8c-8.9,24.6-20.2,55.4-32.3,90.3c55.4-57.1,113-127.8,150.7-184.5
			c2.7-4.4,6.7-4.5,9.3-0.5c4.6,10.1,6.7,26.5-6.8,52.8c-16.9,32.7-72.8,101.7-130.4,157.7c19.3,22,35.8,42,43.7,54.6
			c15.9,25.5,14.3,43,8.5,53.3c-2.3,3.8-5.7,4.4-8.8,0.4c-23.9-32.6-50.6-63.8-79.5-94.1C72.6,323.1,61.6,361.8,51.7,401.3z"/>
		<path fill="#003366" d="M345.4,159.9c3.3-6.9,7-8.5,11.1-4.7c8.6,7.5,15.7,27.5,8,53.4c-7.1,23.3-25.4,63.1-32.8,90.4
			c-7.7,28.8-4.9,49.5,11.3,45.9c19.5-4.1,40.7-41,52.2-76.8c1.7-4.7,5-5.7,7.6-1.7c2.6,4,4.5,16,0.4,30.4
			c-8.3,28.4-34.3,59.6-60.9,62.4c-26.1,2.7-42-10.5-45.6-33.1c-12.2,22.1-31,43.3-54,47c-44.6,7.1-63.5-52.4-32.9-116.8
			c29.8-62.9,64.3-90.5,88.3-94.3c20.6-3.3,32.8,11,34.8,29.9C337.1,179.4,341.3,168.4,345.4,159.9z M310.1,185.7
			c-15.6,1-45.6,37.8-65.2,84.7c-18.8,45.3-18.3,88.6,0.5,86.1c19.8-2.7,39.8-37.4,57.5-83.5C324.7,215.4,324.2,184.9,310.1,185.7z"
			/>
		<path fill="#003366" d="M394.5,137.8c-5.9-6-3.5-9.8,3.7-10.4c13.5-1.7,26.8-4.8,39.5-8.3c10.7-28.8,20.5-53.5,27-65.3
			c3.3-6.9,8.2-7.2,11.5-1.8c7.4,12.6,10,28.4,2.4,55.2c18.6-3.5,27.2,4,32.1,9.6c4.3,5.2,2.9,8.9-4.3,10
			c-10.8,0.2-25.4,4.1-37.1,7.9c-13.6,35.2-33.5,86.1-45.3,129.3c-10.2,37.6-0.2,66.5,20.1,64.2c21.8-2.5,43.7-40.9,55.7-79.8
			c2-6.2,7.1-8,10.1-1.6c3.6,7.3,2.6,16.3-0.4,28.1c-4,14.9-28.9,62.2-67.6,66.9c-31.8,4.1-62.9-27.4-48.7-86.2
			c6.2-25.6,20-69.1,34.5-110.4C411.4,147.9,399.2,142.4,394.5,137.8z"/>
		<path fill="#003366" d="M491.1,262.1c6.4-37,29-98.7,42.8-126.5c3.4-6.4,6.5-8.4,11.1-4.7c8.4,6.5,15.6,26.6,7.9,52.4
			c-6.7,22.7-21.6,58.6-27.9,84.2c-7.1,29.7-3.1,48.2,12.1,44.8c21.4-4.4,42.8-40.3,51.9-75.7c1.7-4.7,5.1-4.8,7.7-1.2
			c5.1,7.1,5.2,17.4,1.4,30.3c-9.6,32.1-36.7,57.1-63.5,61.3C498,332.9,484,303.6,491.1,262.1z M578.2,119.7
			c-5.2,7.7-18.8,8.4-28-2.9c-9.8-11.7-9.7-26.5-3.3-35.9c6.4-9.4,21.2-5.9,29.5,6.1C584.6,98.5,583.3,112,578.2,119.7z"/>
		<path fill="#003366" d="M661.5,293c40.1-4.4,69-48.4,84.6-83.4c1.8-4.2,5.6-4.8,8.2-0.8c2.5,3.5,3.2,17.2-3.4,31.1
			c-15.5,32.5-48.9,60.5-85.8,66.9c-60.8,10.7-91.5-45.9-70.2-112.8c21.3-66.9,66.3-99.7,92.5-89.6c13.1,5.3,22.9,11.1,32.3,20.4
			c10.5,10.1,11.3,40-4.9,67.7c-18.9,32.6-49.1,50.2-87.1,28.2C619.4,267.2,635.8,295.6,661.5,293z M683.7,176.2
			c12.1-22.6,18.7-49.3,11.1-53.5c-11.4-6.5-46.6,28.6-61.9,77.8c-1,3.1-2,6.2-2.5,8.8C656.3,220.5,672.6,196.7,683.7,176.2z"/>
	</g>
	<g enable-background="new    ">
		<path fill="#003366" d="M471.2,717.2c-1.2,5.1-3.5,6-7.4,3.1c-7.9-6.1-15-19.8-11.9-46.8c5-45.6,35.6-144,67.2-217
			c-16.5,1.2-26.3-4.7-33.8-14.3c-3.2-4.4-2.1-7,4-9c39.6-11.2,72.4-36.7,104.3-43.3c24.3-4.9,46.6-1,63.3,29.8
			c14.7,27.2,12.6,57.5-1.7,84.9c-20.4,38.7-67.4,77.2-118.7,98.2c21.8,19.6,42.8,39.9,56.1,58.5c8.8,11.9,13.3,27.9,8.6,38.5
			c-1.8,4.2-4,6-7.5,2.2c-38.6-38.1-68.5-65.3-95.1-86.7C489.8,642.9,480.7,675.3,471.2,717.2z M538.4,506.2
			c-9.3,25.1-18.1,47.2-27.3,72.8c102.3-40.5,145.4-119.2,126-151.1c-14.9-25.2-58.9,7.4-89.2,21.1
			C550.1,462.4,547.5,480.1,538.4,506.2z"/>
		<path fill="#003366" d="M652.9,622.2c6.4-37,29-98.7,42.8-126.5c3.4-6.4,6.5-8.4,11.1-4.7c8.4,6.5,15.6,26.6,7.9,52.4
			c-6.7,22.7-21.6,58.6-27.9,84.2c-7.1,29.7-3.1,48.2,12.1,44.8c21.4-4.4,42.8-40.3,51.9-75.7c1.7-4.7,5.1-4.8,7.7-1.2
			c5.1,7.1,5.2,17.4,1.4,30.3c-9.6,32.1-36.7,57.1-63.5,61.3C659.8,693,645.7,663.7,652.9,622.2z M739.9,479.9
			c-5.2,7.7-18.8,8.4-28-2.9c-9.8-11.7-9.7-26.5-3.3-35.9s21.2-5.9,29.5,6.1C746.4,458.6,745.1,472.1,739.9,479.9z"/>
		<path fill="#003366" d="M857.5,455.1c17.2-9.2,29.9-3.8,42.7,14.8c12.1,17.3,13.9,37.7-1.1,57.8c-13.8,18.4-31.7,35.6-60.5,49.5
			c8.2,39.1,26,64.3,44.6,63.3c20-1.2,40.5-42.4,50.1-74.5c2-6.2,6.2-7.4,9.5-2c3.3,5.4,4.2,17-1.1,30.2
			c-8.3,22-25.5,56.2-63.5,61.8c-33.7,4.9-66.4-17.9-75.8-82.9c-1.4-8.6-0.7-10.2,8-14.6c56.4-29.2,81.4-76,72.2-87.3
			c-6.7-7.8-26.9,0.9-49.2,24.6c-31.6,33.1-46.5,78.8-69.3,173c-0.8,4.1-4.5,5.6-8.5,2.3c-8.5-7-13.4-22-8.9-52.7
			c6.5-45.8,60.9-216.5,94.3-281.4c3.4-6.4,8.1-7.7,11.9-2.4c9.5,13.2,11.6,32.6-3,70.9c-8.4,21.5-21.7,58.1-30.9,83.7
			C832.2,472,845.8,461.5,857.5,455.1z"/>
		<path fill="#003366" d="M1184.4,609.2c-36.8,3.9-56.4-26.4-50.6-67.2c4.9-33.8,28.1-73.9,45-100.2c-19,16.8-39.8,25.1-54.7,27.4
			c-26.5,89.9-68.7,158.6-125.6,168.7c-60.8,10.7-91-45.5-69.6-111.9c20.7-64.3,65.4-99.1,91.6-89c13.2,5.3,22.9,10.6,32.2,20
			c10,10.2,9.7,39.3-5.6,66.8c-17.9,32.9-48.1,50-86,28.5c-8.4,46.1,8.6,75.4,33.2,72.5c53.2-6,93.9-90.3,110.5-155.5
			c-39.4-9.5-2.6-80.8,17.4-85c14.8-2.9,14.7,27.2,7.7,60.3c16.4-5.1,32-15.4,48.7-30.9c5.1-4.8,9.1-7.9,13.2-3.6
			c11.3,9,27,30.1,15.1,48.3c-18.6,28.6-37.8,65.1-41.9,92.3c-3.9,27.7,4.9,46,19.4,44.2c20.3-2.3,39.7-37.9,49.4-75.8
			c1.3-4.1,4.5-5.6,7.1-1.6c3.2,4.9,6.2,17.2,2.6,31.6C1236.3,579.7,1211,606.4,1184.4,609.2z M1016.7,508.5
			c12.2-22.1,18.3-48.7,11.2-53c-12-7.4-46.5,29.1-61.6,76.8c-1.1,2.6-1.5,6.1-2.5,8.8C989.6,551.7,1005.2,529,1016.7,508.5z"/>
	</g>
</g>
</svg>
