<?xml version="1.0" encoding="utf-8"?>
<!-- Generator: Adobe Illustrator 17.1.0, SVG Export Plug-In . SVG Version: 6.00 Build 0)  -->
<!DOCTYPE svg PUBLIC "-//W3C//DTD SVG 1.1//EN" "http://www.w3.org/Graphics/SVG/1.1/DTD/svg11.dtd">
<svg version="1.1" id="Layer_1" xmlns="http://www.w3.org/2000/svg" xmlns:xlink="http://www.w3.org/1999/xlink" x="0px" y="0px"
	 viewBox="566 377.8 128.8 46.5" enable-background="new 566 377.8 128.8 46.5" xml:space="preserve">
<g>
	<path fill="#1C3665" d="M573.8,381.9c-0.2-0.5-0.1-0.8,0.5-0.9c4-0.4,7.7-2.4,10.9-2.6c2.4-0.1,4.6,0.7,5.8,4
		c1,2.9,0.2,5.8-1.4,8.3c-2.4,3.7-7.7,7.4-14,8.6c-1.1,0.2-2.2,0-3-0.5c-1.3,2.6-2.8,5.9-4.5,9.9c-0.2,0.5-0.4,0.5-0.8,0.1
		c-0.7-0.7-1.2-2.2-0.4-4.8c1.2-4.4,5.9-13.5,10-20.2C575.3,383.8,574.2,383,573.8,381.9z M588.9,382.9c-1-2.6-5.9-0.1-9.1,0.8
		c0,1.3-0.5,3-1.8,5.4c-1.2,2.2-2.6,4.4-4,7.2C584.8,394.1,590.2,386.4,588.9,382.9z"/>
	<path fill="#1C3665" d="M612,409.6c-3.7-0.2-5.3-3.4-4-7.4c1-3.2,4-6.9,6.1-9.2c-2.2,1.4-4.3,1.9-5.9,1.9c-1.3,2.2-3.3,3.8-6.1,3.9
		c-1,4.1-3.9,9.1-7.6,10.3c-1.7,0.6-4.2,0.5-6.2-2.1c-2.1-2.8-1.3-7.1,0.7-10.9c1.8-3.3,4.8-6.1,7.8-6.3c1.4-0.1,2.2,0.3,3.2,1.6
		c1.2,1.5,2.5,1.8,2.3,5.4c0,0.2-0.1,0.5-0.1,0.8c1.3-0.2,2.7-1.2,3.7-3c-3.6-1.5,1.2-8,3.1-8c1.7,0,0.8,3.5-0.1,6.1
		c1.7-0.2,3.4-1.1,5.3-2.3c0.6-0.4,1.1-0.6,1.4-0.1c0.9,1,2.1,3.3,0.6,4.9c-2.3,2.5-4.6,5.9-5.5,8.5c-0.9,2.6-0.3,4.5,1.2,4.6
		c1.9,0.1,4.4-3.1,6-6.7c0.2-0.4,0.5-0.5,0.7-0.1c0.2,0.6,0.4,1.9-0.1,3.1C617.5,407.5,614.6,409.7,612,409.6z M595.9,393.3
		c-1.3,1.1-2.6,2.7-3.7,4.5c-2.1,3.6-2.7,8.1-1.5,9.2c1.2,1.1,4.2-0.6,6.7-5.1c0.8-1.4,1.3-2.7,1.7-3.9
		C597.2,397.1,596,395.2,595.9,393.3z M599.7,393.3c-0.2-1.6-1.2-1.2-1.4,0.2c-0.1,1.2,0.3,2.4,1.2,3.2
		C599.7,395.3,599.8,394.1,599.7,393.3z"/>
	<path fill="#1C3665" d="M620.6,388.6c-0.5-0.7-0.2-1,0.5-1c1.3,0,2.7,0,4-0.2c1.5-2.6,2.8-4.9,3.6-6.1c0.4-0.6,0.9-0.6,1.2,0
		c0.5,1.3,0.5,2.9-0.6,5.5c1.9,0,2.6,0.8,3,1.4c0.3,0.6,0.1,0.9-0.6,0.9c-1.1-0.1-2.5,0-3.7,0.2c-1.9,3.2-4.6,8-6.5,12
		c-1.6,3.5-1.1,6.6,1,6.7c2.2,0.1,4.9-3.3,6.8-7c0.3-0.6,0.8-0.7,1,0c0.2,0.8,0,1.6-0.5,2.7c-0.6,1.4-3.8,5.7-7.7,5.6
		c-3.2-0.1-5.8-3.6-3.4-9.3c1-2.4,3-6.5,5.2-10.3C622.1,389.8,621,389.1,620.6,388.6z"/>
	<path fill="#1C3665" d="M635.8,405.4c0,0.5,0,1.1-0.1,1.6c1.8-1.2,3.7-3.6,5.1-6.2c0.3-0.6,0.8-0.6,1,0c0.2,0.7,0,1.8-0.5,2.9
		c-0.5,1.2-2.9,4-5.9,5.1c-0.8,4.8-2.9,10.3-5.3,13.2c-1.6,2-2.8,2.2-4.3,1c-1.2-1-2.6-2.9-2.1-7.1c1.3-10.8,12.5-29.4,17.9-37.5
		c0.4-0.6,1-0.5,1.2,0c0.6,1.6,0.4,3.7-1.6,7.3c-2,3.3-5.4,8.8-8,13.8C635.1,400.3,635.8,402.2,635.8,405.4z M626.4,421.1
		c1.1,1.4,4.7-5.3,6.3-11.9c-1.4-0.1-2.4-0.8-2.9-1.9C627,413.7,625.3,419.7,626.4,421.1z M633.4,404.3c0-1.8-0.4-3.3-0.8-3.1
		c-0.5,0.2-0.9,2.7-1,3.8c0,1.5,0.4,2.5,1.3,2.7C633.2,406.7,633.3,405.5,633.4,404.3z"/>
	<path fill="#1C3665" d="M661.2,408c2.3,0.1,5.7-3.3,7.5-7c0.3-0.6,0.8-0.7,1,0c0.2,0.8,0,1.8-0.5,2.9c-0.6,1.4-4.1,5.5-8,5.4
		c-3.2-0.1-5.1-2.4-3.9-7.6c0.1-0.7,0.3-1.2,0.5-1.9c-0.4,0-0.7,0-1.1,0c-0.6,0-1.2,0-1.7-0.1c-1.2,3.9-4,8.3-7.4,9.3
		c-1.8,0.6-4.3,0.5-6.2-2c-2.1-2.8-1.3-7.2,0.8-10.9c1.9-3.3,4.7-6.1,7.7-6.3c1.4-0.1,2.3,0.3,3.3,1.6c1.2,1.5,2.5,1.8,2.3,5.4
		c0,0.6-0.1,1.2-0.2,1.8c0.4,0,0.9,0.1,1.3,0.1c0.5,0,1,0,1.5,0c2.3-7.3,7.1-14.5,11.4-19.1c0.7-0.7,1.4-0.9,2.1-0.2
		c1.3,1.3,1.6,3,1.1,5.3c-0.7,2.7-2.7,6.2-4.5,8.5c-2,2.4-4,4.5-6.6,5.8C659.5,403.6,659,407.8,661.2,408z M648.8,393.4
		c-1.2,1-2.7,2.6-3.7,4.5c-2,3.6-2.7,8.2-1.4,9.2c1.3,1.1,4.3-0.6,6.7-4.9c0.7-1.3,1.2-2.5,1.6-3.7
		C650,397.2,648.8,395.2,648.8,393.4z M652.7,393.3c-0.2-1.5-1.2-1.2-1.4,0.1c-0.2,1.2,0.2,2.5,1.1,3.5
		C652.7,395.5,652.8,394.1,652.7,393.3z M667.5,391.3c2.1-3.1,4-7.4,3.4-7.8c-0.5-0.3-4.2,4.8-7.5,11.1c-0.4,0.7-0.7,1.4-1,2.1
		C664.6,395.2,666.5,392.7,667.5,391.3z"/>
	<path fill="#1C3665" d="M667.9,402.3c1.2-3.5,4.4-9.3,6.2-11.8c0.4-0.6,0.8-0.7,1.2-0.3c0.7,0.8,1.1,2.8,0,5.3c-1,2.1-3,5.5-4,7.9
		c-1.2,2.8-1.1,4.7,0.5,4.6c2.2-0.1,4.8-3.3,6.3-6.7c0.2-0.4,0.6-0.4,0.8,0c0.4,0.8,0.2,1.8-0.3,3c-1.4,3-4.5,5.1-7.3,5.1
		C667.5,409.4,666.5,406.3,667.9,402.3z M678.7,389.7c-0.6,0.7-2,0.5-2.7-0.7c-0.8-1.3-0.5-2.7,0.2-3.6c0.8-0.8,2.2-0.2,2.8,1.1
		C679.6,387.7,679.3,389,678.7,389.7z"/>
	<path fill="#1C3665" d="M692.8,398.9c-1,4.1-4,9-7.7,10.2c-1.7,0.6-4.1,0.4-6.1-2.1c-2.1-2.8-1.4-7.1,0.8-10.9
		c1.8-3.3,4.8-6.1,7.7-6.3c1.5-0.1,2.3,0.3,3.3,1.6c1.1,1.5,2.5,1.8,2.3,5.4c0,0.4,0,0.7-0.1,1.1c0.3,0,0.6-0.1,1-0.1
		c0.3,0,0.3,0.2,0.1,0.5C693.7,398.7,693.2,398.8,692.8,398.9z M688.7,397.7c-1-0.8-2.2-2.4-2.2-4.2c-1.3,1.1-2.7,2.7-3.7,4.5
		c-2,3.6-2.7,8.2-1.5,9.2c1.3,1.1,4.3-0.6,6.7-5.1c0.7-1.3,1.3-2.7,1.7-3.8C689.3,398.1,689,397.9,688.7,397.7z M690.3,393.3
		c-0.2-1.5-1.2-1.2-1.4,0.1c-0.2,1.3,0.3,2.7,1.1,3.4C690.3,395.5,690.5,394.2,690.3,393.3z"/>
</g>
</svg>
